<svg xmlns="http://www.w3.org/2000/svg" fill="none" viewBox="0 0 24 24" strokeWidth={1.5} stroke="currentColor">
  <path strokeLinecap="round" strokeLinejoin="round" d="M8.25 18.75a1.5 1.5 0 01-3 0m3 0a1.5 1.5 0 00-3 0m3 0h6m-9 0H3.375a1.125 1.125 0 01-1.125-1.125V14.25m17.25 4.5a1.5 1.5 0 01-3 0m3 0a1.5 1.5 0 00-3 0m3 0h1.125c.621 0 1.129-.504 1.09-1.124a17.902 17.902 0 00-3.213-9.193 2.056 2.056 0 00-1.58-.86H14.25M16.5 18.75h-2.25m0-11.177v-.958c0-.568-.22-1.113-.615-1.53a15.54 15.54 0 00-2.085-1.66c-.456-.3-.96-.582-1.448-.792M10.5 6.75h-3.75M6.75 18.75h-1.5m11.25-9H9" />
</svg>
